# xmcd
#
# Track frame offsets: 
#        150
#        10452
#        16857
#        27177
#        36747
#        54365
#        66332
#        76980
#        103882
#        116605
#        129602
#        144790
#        159827
#        166810
#        183367
#
# Disc length: 2750 seconds
#
# Revision: 13
# Processed by: cddbd v1.5.2PL0 Copyright (c) Steve Scherf et al.
# Submitted via: ExactAudioCopyFreeDBPlugin 1.0
#
DISCID=bf0abc0f
DTITLE=Various Artist - Dreamgirls:  Music from the Motion Picture (D
DTITLE=eluxe Edition)
DYEAR=2006
DGENRE=Rhythm and Blues
TTITLE0=Maxi Anderson, Charlene Carmon, Keisha Heeley - I'm Lookin' fo
TTITLE0=r Something
TTITLE1=Durrell Babbs, Luke Boyd, Eric Dawkins, Steve Russel - Goin' D
TTITLE1=owntown
TTITLE2=Michael Leon Wooley - Takin' the Long Way Home
TTITLE3=Jennifer Hudson, Beyonce Knowles, Anika Noni Rose - Move
TTITLE4=Jennifer Hudson, Beyone Knowles, Eddie Murphy, Anika Noni Rose
TTITLE4=Fake Your Way to the Top
TTITLE5=Dreamgirls Band - Big (jazz instrumental)
TTITLE6=Laura Bell Bundy, Jennifer Hudson, Beyonce Knowles, Eddie Murp
TTITLE6=hy, Rory O'Malley, Anika Noni Rose, Anne Warren - Cadillac Car
TTITLE7=Hinton Battle,Jamie Fox,Jennifer Hudson,Beyonce Knowles,Eddie 
TTITLE7=Murphy,Keith Robinson,Anika Noni Rose - Steppin' to the Bad Si
TTITLE7=de
TTITLE8=Jennifer Hudson - Love You I Do
TTITLE9=Jennifer Hudson, Beyonce Knowles, Eddie Murphy, Anika Noni Ros
TTITLE9=e - I Want You Baby
TTITLE10=Jamie Fox, Jennifer Hudson, Beyonce Knowles, Keith Robinson, 
TTITLE10=Anika Noni Rose - Family
TTITLE11=Jennifer Hudson, Beyonce Knowles, Anika Noni Rose - Dreamgirl
TTITLE11=s
TTITLE12=Jennifer Hudson, Beyonce Knowles, Anika Noni Rose - Heavy
TTITLE13=Jamie Fox, Jennifer Hudson, Beyonce Knowles, Sharon Leal, Kei
TTITLE13=th Robinson, Anika Noni Rose - It's All Over
TTITLE14=Jennifer Hudson - And I am Telling You I'm Not Going
EXTD=
EXTT0=
EXTT1=
EXTT2=
EXTT3=
EXTT4=
EXTT5=
EXTT6=
EXTT7=
EXTT8=
EXTT9=
EXTT10=
EXTT11=
EXTT12=
EXTT13=
EXTT14=
PLAYORDER=
